<svg width="1000" height="613" viewBox="0 0 1000 613" fill="none" xmlns="http://www.w3.org/2000/svg">
<path d="M902.299 524.765C902.299 535.993 900.316 546.589 896.38 556.579C892.429 566.571 886.947 575.326 879.946 582.82C872.971 590.327 864.635 596.268 854.951 600.646C845.254 605.037 834.659 607.219 823.14 607.219H754.497C759.465 605.891 762.714 603.21 764.273 599.174C765.858 595.112 766.65 590.839 766.65 586.344V463.187C766.65 458.704 765.806 454.445 764.114 450.409C762.423 446.348 759.214 443.652 754.497 442.312H820.445C831.925 442.312 842.639 444.506 852.573 448.884C862.508 453.275 871.135 459.217 878.466 466.711C885.785 474.218 891.585 482.96 895.851 492.951C900.145 502.942 902.299 513.552 902.299 524.765ZM787.312 604.17H803.219C815.372 604.17 826.23 602.277 835.822 598.491C845.4 594.678 853.445 589.288 859.972 582.347C866.523 575.379 871.491 567.018 874.873 557.263C878.254 547.482 879.946 536.65 879.946 524.765C879.946 512.881 878.254 502.022 874.873 492.163C871.491 482.276 866.523 473.863 859.972 466.922C853.445 459.954 845.4 454.551 835.822 450.724C826.23 446.912 815.372 444.993 803.219 444.993H787.312V604.17Z" fill="white"/>
<path d="M348.344 294.725C348.344 299.22 349.11 303.547 350.668 307.714C352.254 311.855 355.424 314.707 360.18 316.285H315.528C320.495 314.707 323.745 311.908 325.304 307.872C326.889 303.848 327.682 299.458 327.682 294.725V171.885C327.682 167.403 326.889 163.26 325.304 159.474C323.745 155.662 320.495 152.955 315.528 151.377H360.18C355.424 152.955 352.254 155.662 350.668 159.474C349.11 163.26 348.344 167.403 348.344 171.885V294.725Z" fill="white"/>
<path d="M434.253 313.603C445.522 313.603 454.981 310.75 462.63 305.032C470.306 299.287 476.964 291.82 482.604 282.631L475.153 316.285H365.241C370.208 314.707 373.458 311.855 375.017 307.714C376.602 303.547 377.395 299.22 377.395 294.725V171.885C377.395 167.403 376.602 163.26 375.017 159.474C373.458 155.662 370.208 152.955 365.241 151.377H409.893C405.137 152.955 401.967 155.662 400.381 159.474C398.823 163.26 398.057 167.403 398.057 171.885V313.603H434.253Z" fill="white"/>
<path d="M556.673 313.603C567.942 313.603 577.401 310.75 585.05 305.032C592.725 299.287 599.383 291.82 605.024 282.631L597.573 316.285H487.661C492.628 314.707 495.878 311.855 497.437 307.714C499.022 303.547 499.815 299.22 499.815 294.725V171.885C499.815 167.403 499.022 163.26 497.437 159.474C495.878 155.662 492.628 152.955 487.661 151.377H532.313C527.557 152.955 524.386 155.662 522.801 159.474C521.243 163.26 520.476 167.403 520.476 171.885V313.603H556.673Z" fill="white"/>
<path d="M777.488 233.831C777.488 245.268 775.282 256.022 770.883 266.118C766.47 276.215 760.499 285.036 752.97 292.57C745.426 300.076 736.588 306.018 726.442 310.396C716.296 314.787 705.463 316.969 693.944 316.969C682.45 316.969 671.645 314.787 661.499 310.396C651.353 306.018 642.488 300.076 634.918 292.57C627.375 285.036 621.404 276.215 617.004 266.118C612.592 256.022 610.399 245.268 610.399 233.831C610.399 222.407 612.592 211.64 617.004 201.544C621.404 191.447 627.375 182.652 634.918 175.145C642.488 167.612 651.353 161.657 661.499 157.266C671.645 152.889 682.45 150.693 693.944 150.693C705.463 150.693 716.296 152.889 726.442 157.266C736.588 161.657 745.426 167.612 752.97 175.145C760.499 182.652 766.47 191.447 770.883 201.544C775.282 211.64 777.488 222.407 777.488 233.831ZM633.756 229.782C633.756 238.551 635.208 247.924 638.142 257.915C641.061 267.88 645.288 277.056 650.824 285.47C656.346 293.883 663.109 300.851 671.116 306.346C679.108 311.855 688.184 314.602 698.329 314.602C707.802 314.602 716.151 312.131 723.377 307.188C730.591 302.244 736.561 295.975 741.291 288.362C746.046 280.724 749.6 272.416 751.965 263.436C754.317 254.471 755.506 245.952 755.506 237.88C755.506 228.664 754.092 219.133 751.278 209.274C748.451 199.387 744.224 190.317 738.596 182.034C732.955 173.726 726.138 166.876 718.145 161.474C710.14 156.083 700.839 153.375 690.244 153.375C680.759 153.375 672.516 155.846 665.514 160.79C658.539 165.733 652.673 172.029 647.917 179.667C643.188 187.28 639.647 195.523 637.296 204.383C634.932 213.257 633.756 221.723 633.756 229.782Z" fill="white"/>
<path d="M1000 151.377C994.821 152.717 990.356 155.057 986.631 158.423C982.932 161.789 980.29 166.074 978.705 171.254L933.735 315.969L889.77 191.447L850.878 315.969L799.461 172.937C798.114 168.874 795.974 164.721 793.015 160.474C790.083 156.202 786.7 153.164 782.869 151.377H829.899C826.967 152.506 824.667 154.584 822.977 157.634C821.286 160.658 820.44 163.616 820.44 166.522C820.44 168.98 820.877 171.122 821.762 172.937L859.333 280.632L888.396 187.03C887.049 184.373 885.701 181.245 884.327 177.669C882.98 174.067 881.42 170.517 879.625 167.047C877.828 163.549 875.793 160.394 873.547 157.581C871.289 154.782 868.58 152.717 865.409 151.377H912.44C909.269 152.506 906.892 154.584 905.306 157.634C903.721 160.658 902.928 163.721 902.928 166.837C902.928 169.085 903.272 171.122 903.985 172.937L941.82 280.632L976.327 170.57C976.988 168.782 977.33 167.1 977.33 165.522C977.33 161.92 976.088 158.831 973.632 156.267C971.161 153.678 968.242 152.047 964.86 151.377H1000Z" fill="white"/>
<mask id="mask0_104_14" style="mask-type:luminance" maskUnits="userSpaceOnUse" x="778" y="10" width="8" height="8">
<path d="M778.432 10.7751H785.195V17.5057H778.432V10.7751Z" fill="white"/>
</mask>
<g mask="url(#mask0_104_14)">
<mask id="mask1_104_14" style="mask-type:luminance" maskUnits="userSpaceOnUse" x="683" y="-66" width="190" height="134">
<path d="M872.454 -5.90778L845.346 67.5413L683.449 8.34336L710.558 -65.1057L872.454 -5.90778Z" fill="white"/>
</mask>
<g mask="url(#mask1_104_14)">
<mask id="mask2_104_14" style="mask-type:luminance" maskUnits="userSpaceOnUse" x="657" y="-75" width="216" height="143">
<path d="M872.452 -5.90762L845.343 67.5414L657.249 -1.22791L684.371 -74.677L872.452 -5.90762Z" fill="white"/>
</mask>
<g mask="url(#mask2_104_14)">
<path d="M781.075 13.1277C781.259 13.2072 781.537 13.2337 781.642 13.3384C782.026 13.6274 782.329 13.943 782.7 14.285C782.739 14.3771 782.752 14.521 782.726 14.574C782.066 14.2711 781.563 13.7322 781.115 13.2198C781.115 13.2198 781.141 13.1542 781.075 13.1277Z" fill="#E6A33F"/>
</g>
</g>
</g>
<mask id="mask3_104_14" style="mask-type:luminance" maskUnits="userSpaceOnUse" x="781" y="14" width="5" height="4">
<path d="M781.814 14.1406H785.197V17.5065H781.814V14.1406Z" fill="white"/>
</mask>
<g mask="url(#mask3_104_14)">
<mask id="mask4_104_14" style="mask-type:luminance" maskUnits="userSpaceOnUse" x="683" y="-66" width="190" height="134">
<path d="M872.454 -5.90753L845.346 67.5415L683.449 8.3436L710.558 -65.1055L872.454 -5.90753Z" fill="white"/>
</mask>
<g mask="url(#mask4_104_14)">
<mask id="mask5_104_14" style="mask-type:luminance" maskUnits="userSpaceOnUse" x="657" y="-75" width="216" height="143">
<path d="M872.452 -5.90738L845.343 67.5417L657.249 -1.22767L684.371 -74.6768L872.452 -5.90738Z" fill="white"/>
</mask>
<g mask="url(#mask5_104_14)">
<path d="M783.268 15.0605C783.572 15.1666 783.848 15.1931 783.836 15.6133C783.611 15.4556 783.294 15.3508 783.268 15.0605Z" fill="#E6A33F"/>
</g>
</g>
</g>
<mask id="mask6_104_14" style="mask-type:luminance" maskUnits="userSpaceOnUse" x="781" y="14" width="8" height="4">
<path d="M781.814 14.1406H788.578V17.5065H781.814V14.1406Z" fill="white"/>
</mask>
<g mask="url(#mask6_104_14)">
<mask id="mask7_104_14" style="mask-type:luminance" maskUnits="userSpaceOnUse" x="683" y="-66" width="190" height="134">
<path d="M872.454 -5.90753L845.346 67.5415L683.449 8.3436L710.558 -65.1055L872.454 -5.90753Z" fill="white"/>
</mask>
<g mask="url(#mask7_104_14)">
<mask id="mask8_104_14" style="mask-type:luminance" maskUnits="userSpaceOnUse" x="657" y="-75" width="216" height="143">
<path d="M872.452 -5.90738L845.343 67.5417L657.249 -1.22767L684.371 -74.6768L872.452 -5.90738Z" fill="white"/>
</mask>
<g mask="url(#mask8_104_14)">
<path d="M785.552 16.6646C785.513 16.7971 785.459 16.9145 785.486 17.0596C785.235 16.9675 784.918 16.8627 784.918 16.5068C785.116 16.5068 785.367 16.599 785.552 16.6646Z" fill="#E6A33F"/>
</g>
</g>
</g>
<mask id="mask9_104_14" style="mask-type:luminance" maskUnits="userSpaceOnUse" x="781" y="14" width="5" height="4">
<path d="M781.814 14.1406H785.197V17.5065H781.814V14.1406Z" fill="white"/>
</mask>
<g mask="url(#mask9_104_14)">
<mask id="mask10_104_14" style="mask-type:luminance" maskUnits="userSpaceOnUse" x="683" y="-66" width="190" height="134">
<path d="M872.454 -5.90753L845.346 67.5415L683.449 8.3436L710.558 -65.1055L872.454 -5.90753Z" fill="white"/>
</mask>
<g mask="url(#mask10_104_14)">
<mask id="mask11_104_14" style="mask-type:luminance" maskUnits="userSpaceOnUse" x="657" y="-75" width="216" height="143">
<path d="M872.452 -5.90738L845.343 67.5417L657.249 -1.22767L684.371 -74.6768L872.452 -5.90738Z" fill="white"/>
</mask>
<g mask="url(#mask11_104_14)">
<path d="M782.726 14.5747C782.857 14.6277 783.043 14.6933 783.162 14.7463C783.294 14.7855 783.372 14.9558 783.386 15.101C783.069 14.9823 782.765 14.8776 782.726 14.5747Z" fill="#E6A33F"/>
<path d="M783.795 15.5352C784.033 15.626 784.377 15.679 784.363 16.0867C784.139 15.9415 783.888 15.8507 783.795 15.5352Z" fill="#E6A33F"/>
</g>
</g>
</g>
<mask id="mask12_104_14" style="mask-type:luminance" maskUnits="userSpaceOnUse" x="778" y="10" width="4" height="5">
<path d="M778.432 10.7751H781.814V14.1398H778.432V10.7751Z" fill="white"/>
</mask>
<g mask="url(#mask12_104_14)">
<mask id="mask13_104_14" style="mask-type:luminance" maskUnits="userSpaceOnUse" x="683" y="-66" width="190" height="134">
<path d="M872.454 -5.90778L845.346 67.5413L683.449 8.34336L710.558 -65.1057L872.454 -5.90778Z" fill="white"/>
</mask>
<g mask="url(#mask13_104_14)">
<mask id="mask14_104_14" style="mask-type:luminance" maskUnits="userSpaceOnUse" x="657" y="-75" width="216" height="143">
<path d="M872.452 -5.90762L845.343 67.5414L657.249 -1.22791L684.371 -74.677L872.452 -5.90762Z" fill="white"/>
</mask>
<g mask="url(#mask14_104_14)">
<path d="M780.545 12.655C780.677 12.708 780.862 12.7737 780.981 12.8128C781.113 12.8658 781.179 13.0362 781.14 13.1548C780.889 13.0627 780.558 13.0097 780.545 12.655Z" fill="#E6A33F"/>
</g>
</g>
</g>
<mask id="mask15_104_14" style="mask-type:luminance" maskUnits="userSpaceOnUse" x="781" y="14" width="5" height="4">
<path d="M781.814 14.1406H785.197V17.5065H781.814V14.1406Z" fill="white"/>
</mask>
<g mask="url(#mask15_104_14)">
<mask id="mask16_104_14" style="mask-type:luminance" maskUnits="userSpaceOnUse" x="683" y="-66" width="190" height="134">
<path d="M872.454 -5.90753L845.346 67.5415L683.449 8.3436L710.558 -65.1055L872.454 -5.90753Z" fill="white"/>
</mask>
<g mask="url(#mask16_104_14)">
<mask id="mask17_104_14" style="mask-type:luminance" maskUnits="userSpaceOnUse" x="657" y="-75" width="216" height="143">
<path d="M872.452 -5.90738L845.343 67.5417L657.249 -1.22767L684.371 -74.6768L872.452 -5.90738Z" fill="white"/>
</mask>
<g mask="url(#mask17_104_14)">
<path d="M784.323 16.0071C784.574 16.0992 784.904 16.1522 784.891 16.5599C784.667 16.4147 784.416 16.3239 784.323 16.0071Z" fill="#E6A33F"/>
</g>
</g>
</g>
<mask id="mask18_104_14" style="mask-type:luminance" maskUnits="userSpaceOnUse" x="217" y="0" width="7" height="5">
<path d="M217.03 0.679199H223.794V4.04382H217.03V0.679199Z" fill="white"/>
</mask>
<g mask="url(#mask18_104_14)">
<mask id="mask19_104_14" style="mask-type:luminance" maskUnits="userSpaceOnUse" x="132" y="-70" width="188" height="121">
<path d="M298.646 -69.418L319.162 6.12107L152.668 50.9114L132.138 -24.6276L298.646 -69.418Z" fill="white"/>
</mask>
<g mask="url(#mask19_104_14)">
<mask id="mask20_104_14" style="mask-type:luminance" maskUnits="userSpaceOnUse" x="131" y="-77" width="215" height="129">
<path d="M131.65 -24.4965L152.166 51.0425L345.598 -0.990764L325.082 -76.5298L131.65 -24.4965Z" fill="white"/>
</mask>
<g mask="url(#mask20_104_14)">
<path d="M220.994 2.47998C220.794 2.53172 220.518 2.53172 220.411 2.63774C220.002 2.87374 219.672 3.17664 219.276 3.47827C219.223 3.5704 219.196 3.71555 219.209 3.76855C219.897 3.51867 220.452 3.03151 220.94 2.55824C220.94 2.55824 220.928 2.4926 220.994 2.47998Z" fill="#E6A33F"/>
</g>
</g>
</g>
<mask id="mask21_104_14" style="mask-type:luminance" maskUnits="userSpaceOnUse" x="217" y="4" width="4" height="4">
<path d="M217.03 4.0437H220.411V7.40961H217.03V4.0437Z" fill="white"/>
</mask>
<g mask="url(#mask21_104_14)">
<mask id="mask22_104_14" style="mask-type:luminance" maskUnits="userSpaceOnUse" x="132" y="-70" width="188" height="121">
<path d="M298.646 -69.4182L319.162 6.12083L152.668 50.9111L132.138 -24.6279L298.646 -69.4182Z" fill="white"/>
</mask>
<g mask="url(#mask22_104_14)">
<mask id="mask23_104_14" style="mask-type:luminance" maskUnits="userSpaceOnUse" x="131" y="-77" width="215" height="129">
<path d="M131.65 -24.4968L152.166 51.0423L345.598 -0.991008L325.082 -76.53L131.65 -24.4968Z" fill="white"/>
</mask>
<g mask="url(#mask23_104_14)">
<path d="M218.642 4.20093C218.325 4.28044 218.048 4.29307 218.021 4.70072C218.259 4.56946 218.59 4.4912 218.642 4.20093Z" fill="#E6A33F"/>
</g>
</g>
</g>
<mask id="mask24_104_14" style="mask-type:luminance" maskUnits="userSpaceOnUse" x="213" y="4" width="5" height="4">
<path d="M213.648 4.0437H217.031V7.40961H213.648V4.0437Z" fill="white"/>
</mask>
<g mask="url(#mask24_104_14)">
<mask id="mask25_104_14" style="mask-type:luminance" maskUnits="userSpaceOnUse" x="132" y="-70" width="188" height="121">
<path d="M298.646 -69.4182L319.162 6.12083L152.668 50.9111L132.138 -24.6279L298.646 -69.4182Z" fill="white"/>
</mask>
<g mask="url(#mask25_104_14)">
<mask id="mask26_104_14" style="mask-type:luminance" maskUnits="userSpaceOnUse" x="131" y="-77" width="215" height="129">
<path d="M131.65 -24.4968L152.166 51.0423L345.598 -0.991008L325.082 -76.53L131.65 -24.4968Z" fill="white"/>
</mask>
<g mask="url(#mask26_104_14)">
<path d="M216.213 5.60837C216.252 5.72701 216.279 5.85825 216.252 6.00213C216.517 5.9365 216.834 5.84438 216.874 5.48975C216.662 5.48975 216.411 5.55537 216.213 5.60837Z" fill="#E6A33F"/>
</g>
</g>
</g>
<mask id="mask27_104_14" style="mask-type:luminance" maskUnits="userSpaceOnUse" x="217" y="0" width="4" height="8">
<path d="M217.03 0.679199H220.411V7.40973H217.03V0.679199Z" fill="white"/>
</mask>
<g mask="url(#mask27_104_14)">
<mask id="mask28_104_14" style="mask-type:luminance" maskUnits="userSpaceOnUse" x="132" y="-70" width="188" height="121">
<path d="M298.646 -69.418L319.162 6.12107L152.668 50.9114L132.138 -24.6276L298.646 -69.418Z" fill="white"/>
</mask>
<g mask="url(#mask28_104_14)">
<mask id="mask29_104_14" style="mask-type:luminance" maskUnits="userSpaceOnUse" x="131" y="-77" width="215" height="129">
<path d="M131.65 -24.4965L152.166 51.0425L345.598 -0.990764L325.082 -76.5298L131.65 -24.4965Z" fill="white"/>
</mask>
<g mask="url(#mask29_104_14)">
<path d="M219.211 3.76831C219.092 3.80743 218.894 3.86043 218.761 3.89955C218.643 3.92605 218.55 4.08382 218.51 4.2277C218.841 4.14945 219.158 4.05732 219.211 3.76831Z" fill="#E6A33F"/>
</g>
</g>
</g>
<mask id="mask30_104_14" style="mask-type:luminance" maskUnits="userSpaceOnUse" x="217" y="4" width="4" height="4">
<path d="M217.03 4.0437H220.411V7.40961H217.03V4.0437Z" fill="white"/>
</mask>
<g mask="url(#mask30_104_14)">
<mask id="mask31_104_14" style="mask-type:luminance" maskUnits="userSpaceOnUse" x="132" y="-70" width="188" height="121">
<path d="M298.646 -69.4182L319.162 6.12083L152.668 50.9111L132.138 -24.6279L298.646 -69.4182Z" fill="white"/>
</mask>
<g mask="url(#mask31_104_14)">
<mask id="mask32_104_14" style="mask-type:luminance" maskUnits="userSpaceOnUse" x="131" y="-77" width="215" height="129">
<path d="M131.65 -24.4968L152.166 51.0423L345.598 -0.991008L325.082 -76.53L131.65 -24.4968Z" fill="white"/>
</mask>
<g mask="url(#mask32_104_14)">
<path d="M218.076 4.62256C217.824 4.68819 217.481 4.71468 217.454 5.13494C217.691 5.00369 217.956 4.93807 218.076 4.62256Z" fill="#E6A33F"/>
</g>
</g>
</g>
<mask id="mask33_104_14" style="mask-type:luminance" maskUnits="userSpaceOnUse" x="220" y="0" width="4" height="5">
<path d="M220.412 0.678955H223.794V4.04357H220.412V0.678955Z" fill="white"/>
</mask>
<g mask="url(#mask33_104_14)">
<mask id="mask34_104_14" style="mask-type:luminance" maskUnits="userSpaceOnUse" x="132" y="-70" width="188" height="121">
<path d="M298.646 -69.4182L319.162 6.12083L152.668 50.9111L132.138 -24.6279L298.646 -69.4182Z" fill="white"/>
</mask>
<g mask="url(#mask34_104_14)">
<mask id="mask35_104_14" style="mask-type:luminance" maskUnits="userSpaceOnUse" x="131" y="-77" width="215" height="129">
<path d="M131.65 -24.4968L152.166 51.0423L345.598 -0.991008L325.082 -76.53L131.65 -24.4968Z" fill="white"/>
</mask>
<g mask="url(#mask35_104_14)">
<path d="M221.562 2.04517C221.43 2.08429 221.232 2.1373 221.113 2.17642C220.981 2.20293 220.889 2.36068 220.928 2.49194C221.179 2.42631 221.523 2.3998 221.562 2.04517Z" fill="#E6A33F"/>
</g>
</g>
</g>
<mask id="mask36_104_14" style="mask-type:luminance" maskUnits="userSpaceOnUse" x="213" y="4" width="8" height="4">
<path d="M213.648 4.0437H220.412V7.40961H213.648V4.0437Z" fill="white"/>
</mask>
<g mask="url(#mask36_104_14)">
<mask id="mask37_104_14" style="mask-type:luminance" maskUnits="userSpaceOnUse" x="132" y="-70" width="188" height="121">
<path d="M298.646 -69.4182L319.162 6.12083L152.668 50.9111L132.138 -24.6279L298.646 -69.4182Z" fill="white"/>
</mask>
<g mask="url(#mask37_104_14)">
<mask id="mask38_104_14" style="mask-type:luminance" maskUnits="userSpaceOnUse" x="131" y="-77" width="215" height="129">
<path d="M131.65 -24.4968L152.166 51.0423L345.598 -0.991008L325.082 -76.53L131.65 -24.4968Z" fill="white"/>
</mask>
<g mask="url(#mask38_104_14)">
<path d="M217.507 5.05566C217.242 5.12255 216.912 5.14781 216.886 5.55545C217.124 5.4242 217.388 5.35856 217.507 5.05566Z" fill="#E6A33F"/>
</g>
</g>
</g>
<mask id="mask39_104_14" style="mask-type:luminance" maskUnits="userSpaceOnUse" x="296" y="421" width="432" height="192">
<path d="M296.401 421.364H727.704V612.946H296.401V421.364Z" fill="white"/>
</mask>
<g mask="url(#mask39_104_14)">
<path d="M546.783 560.335C566.441 578.358 588.979 594.896 616.048 599.051C646.973 603.81 679.486 589.533 695.999 562.872C703.674 550.462 706.779 537 707.73 522.631C707.73 522.736 707.73 522.841 707.73 522.959C708.614 502.635 699.077 481.561 684.293 467.81C671.572 455.952 655.507 448.617 638.11 447.459C611.37 445.658 587.169 458.449 567.551 475.62C555.133 486.478 544.22 498.835 533.613 511.417C522.965 524.064 512.132 536.619 501.154 548.977C480.15 572.6 455.353 595.331 424.426 604.874C405.786 610.633 385.389 611.422 366.629 605.913C346.286 599.945 328.199 587.797 315.491 570.76C306.244 558.35 300.272 543.744 297.894 528.493C296.401 518.923 296.758 509.747 297.789 500.203C299.374 485.741 305.966 471.254 314.461 459.554C323.378 447.275 335.413 437.285 349.086 430.645C369.563 420.72 394.279 418.695 415.971 425.926C441.006 434.247 460.743 451.85 477.282 471.768C457.81 453.915 435.47 437.494 408.705 433.183C380.54 428.647 350.856 439.743 333.114 462.118C327.17 469.625 323.246 477.972 319.983 486.899C317.934 494.643 316.812 502.004 316.336 509.958C316.349 509.839 316.363 509.734 316.376 509.63C315.848 514.033 316.851 519.212 317.658 523.486C319.085 531.124 321.634 538.577 325.307 545.426C331.436 556.824 340.657 566.474 351.542 573.481C363.3 581.04 376.287 583.919 389.999 584.905C390.131 584.919 390.264 584.919 390.396 584.931C390.223 584.931 390.052 584.892 389.894 584.892C404.478 584.681 418.165 581.225 431.058 574.375C445.115 566.895 457.281 556.443 468.431 545.216C480.175 533.398 490.347 520.238 501.458 507.868C512.541 495.497 522.938 482.547 534.525 470.623C556.653 447.986 583.92 428.147 616.087 423.56C632.271 421.245 647.78 423.218 663.316 428.043C671.453 430.567 679.63 435.115 686.5 440.006C699.565 449.313 709.341 461.066 716.964 475.04C727.717 494.721 729.461 518.608 724.6 540.167C717.876 569.944 694.4 595.238 665.64 605.321C650.58 610.594 634.027 611.856 618.36 608.792C603.102 605.808 589.044 598.695 576.627 589.52C565.345 581.198 555.702 571.075 546.783 560.335Z" fill="white"/>
</g>
<path d="M219.826 285.089C225.665 301.707 231.742 318.468 238.057 335.361C244.359 352.294 252.192 367.609 261.572 381.321C270.977 395.059 282.708 406.365 296.765 415.239C310.821 424.139 328.55 428.886 349.978 429.49V433.854C327.387 433.565 307.597 428.911 290.583 419.867C273.594 410.822 258.797 399.003 246.195 384.423C233.618 369.831 222.692 353.136 213.432 334.31C204.198 315.484 195.993 296.106 188.808 276.15C181.647 256.167 174.989 236.33 168.833 216.623C162.663 196.93 156.361 178.919 149.915 162.617L99.8201 321.427L32.9744 135.483C30.9262 129.949 28.1387 124.624 24.6244 119.498C21.0975 114.384 16.698 110.373 11.4146 107.455H72.9755C68.5634 108.928 65.3395 111.557 63.3053 115.343C61.2584 119.129 60.2413 123.073 60.2413 127.175C60.2413 129.213 61.3243 133.801 63.5171 140.953C65.7365 148.104 68.4441 156.571 71.6553 166.352C74.8918 176.106 78.4847 186.596 82.4352 197.85C86.3718 209.077 90.2551 219.856 94.0598 230.19C97.8911 240.536 101.352 249.791 104.417 257.955C107.483 266.132 109.61 271.969 110.812 275.466L148.171 157.78C141.725 143.2 134.458 129.213 126.4 115.816C118.329 102.394 109.015 90.5753 98.4466 80.3741C87.9038 70.1451 75.895 61.89 62.4074 55.6062C48.9452 49.3351 33.4234 46.1926 15.8533 46.1926C13.2104 46.1926 10.5686 46.1926 7.92693 46.1926C5.28432 46.1926 2.77425 46.3503 0.422707 46.6659L0 44.037C2.35155 43.7215 4.70297 43.5637 7.02776 43.5637C9.37905 43.5637 11.7316 43.5637 14.0563 43.5637C36.911 43.5637 57.0707 46.9296 74.5088 53.6602C91.9469 60.3642 107.244 69.4093 120.429 80.7943C133.64 92.1528 145.159 105.497 154.988 120.812C164.817 136.141 173.456 152.469 180.933 169.822C188.398 187.175 195.056 205.041 200.908 223.407C206.787 241.785 212.507 259.875 218.082 277.675C219.245 274.178 221.213 268.263 224.001 259.953C226.775 251.645 229.932 242.167 233.459 231.505C236.974 220.856 240.567 209.774 244.239 198.27C247.898 186.741 251.268 175.948 254.332 165.878C257.424 155.821 260 147.144 262.048 139.848C264.082 132.565 265.112 128.042 265.112 126.281C265.112 121.627 263.487 117.605 260.251 114.239C257.041 110.873 253.236 108.613 248.837 107.455H295.022C289.129 108.928 283.554 112.161 278.27 117.131C273.012 122.074 269.365 127.464 267.331 133.274L219.826 285.089Z" fill="white"/>
<path d="M299.812 442.312C294.634 443.652 290.169 445.992 286.444 449.358C282.744 452.723 280.103 457.008 278.517 462.189L233.547 606.904L189.583 482.382L150.69 606.904L99.2739 463.871C97.927 459.809 95.7862 455.655 92.8275 451.408C89.894 447.136 86.513 444.099 82.6816 442.312H129.711C126.779 443.441 124.48 445.518 122.789 448.569C121.099 451.593 120.253 454.551 120.253 457.456C120.253 459.915 120.689 462.056 121.574 463.871L159.146 571.566L188.208 477.965C186.861 475.308 185.513 472.179 184.14 468.604C182.792 465.002 181.233 461.452 179.437 457.981C177.64 454.484 175.606 451.329 173.36 448.516C171.101 445.716 168.392 443.652 165.222 442.312H212.253C209.082 443.441 206.704 445.518 205.119 448.569C203.533 451.593 202.741 454.656 202.741 457.772C202.741 460.019 203.083 462.056 203.797 463.871L241.632 571.566L276.139 461.505C276.799 459.717 277.143 458.034 277.143 456.457C277.143 452.855 275.901 449.765 273.444 447.202C270.974 444.612 268.054 442.982 264.672 442.312H299.812Z" fill="white"/>
</svg>
